STARTFONT 2.1
FONT "unknown"
SIZE 16 75 75
FONTBOUNDINGBOX 16 16 0 0
STARTPROPERTIES 3
COPYRIGHT "unknown"
FONT_ASCENT 0
FONT_DESCENT 0
ENDPROPERTIES
STARTCHAR D:\GitHub\GeoCloud-presentation\SalesDemo\images\bdfconv\anim\sprite_00.png
ENCODING 48
DWIDTH 50 0
BBX 50 50 0 0
BITMAP
00000000000000
00000000000000
00000000000000
00000000000000
0fffc0c0fffc00
0fffc0c0fffc00
0c00ccfcc00c00
0c00ccfcc00c00
0cfcc030cfcc00
0cfcc030cfcc00
0cfccfcccfcc00
0cfccfcccfcc00
0cfcc0c0cfcc00
0cfcc0c0cfcc00
0c00cc3cc00c00
0c00cc3cc00c00
0fffccccfffc00
0fffccccfffc00
00000300000000
00000300000000
0ffcff33333000
0ffcff33333000
03cc00c33ffc00
03cc00c33ffc00
0c3ccf0c00f000
0c3ccf0c00f000
030c30f30fc000
030c30f30fc000
0ffcc33fcf0c00
0ffcc33fcf0c00
00000c033fcc00
00000c033fcc00
0fffcc3f30f000
0fffcc3f30f000
0c00c0f30ff000
0c00c0f30ff000
0cfcccf0cf0000
0cfcccf0cf0000
0cfccfc03cf000
0cfccfc03cf000
0cfcccff30c000
0cfcccff30c000
0c00cc0f3cc000
0c00cc0f3cc000
0fffcc30ff3000
0fffcc30ff3000
00000000000000
00000000000000
00000000000000
00000000000000
ENDCHAR
STARTCHAR D:\GitHub\GeoCloud-presentation\SalesDemo\images\bdfconv\anim\sprite_01.png
ENCODING 49
DWIDTH 50 0
BBX 50 50 0 0
BITMAP
7fc00000000000
d4e00000000000
d5600000000000
d4e00000000000
d5e00000000000
c5e00000000000
7fc00000000000
00000000000000
00000000000000
00000000000000
00000000000000
00000000000000
00000000000000
00000000000000
00000000000000
00000000000000
00000000000000
00000000000000
00000000000000
00000000000000
00000000000000
00000000000000
00000000000000
00000000000000
00000000000000
00000000000000
00000000000000
00000000000000
00000000000000
00000000000000
00000000000000
00000000000000
00000000000000
00000000000000
00000000000000
00000000000000
00000000000000
00000000000000
00000000000000
00000000000000
00000000000000
00000000000000
00000000000000
00000000000000
00000000000000
00000000000000
00000000000000
00000000000000
00000000000000
00000000000000
ENDCHAR
STARTCHAR D:\GitHub\GeoCloud-presentation\SalesDemo\images\bdfconv\anim\sprite_02.png
ENCODING 50
DWIDTH 50 0
BBX 50 50 0 0
BITMAP
7fc00000000000
fde00000000000
d7e00000000000
fde00000000000
d7e00000000000
ede00000000000
7fc00000000000
00000000000000
00000000000000
00000000000000
00000000000000
00000000000000
00000000000000
00000000000000
00000000000000
00000000000000
00000000000000
00000000000000
00000000000000
00000000000000
00000000000000
00000000000000
00000000000000
00000000000000
00000000000000
00000000000000
00000000000000
00000000000000
00000000000000
00000000000000
00000000000000
00000000000000
00000000000000
00000000000000
00000000000000
00000000000000
00000000000000
00000000000000
00000000000000
00000000000000
00000000000000
00000000000000
00000000000000
00000000000000
00000000000000
00000000000000
00000000000000
00000000000000
00000000000000
00000000000000
ENDCHAR
STARTCHAR D:\GitHub\GeoCloud-presentation\SalesDemo\images\bdfconv\anim\sprite_03.png
ENCODING 51
DWIDTH 50 0
BBX 50 50 0 0
BITMAP
7fc00000000000
d6e00000000000
fd600000000000
d6e00000000000
fde00000000000
d7e00000000000
7fc00000000000
00000000000000
00000000000000
00000000000000
00000000000000
00000000000000
00000000000000
00000000000000
00000000000000
00000000000000
00000000000000
00000000000000
00000000000000
00000000000000
00000000000000
00000000000000
00000000000000
00000000000000
00000000000000
00000000000000
00000000000000
00000000000000
00000000000000
00000000000000
00000000000000
00000000000000
00000000000000
00000000000000
00000000000000
00000000000000
00000000000000
00000000000000
00000000000000
00000000000000
00000000000000
00000000000000
00000000000000
00000000000000
00000000000000
00000000000000
00000000000000
00000000000000
00000000000000
00000000000000
ENDCHAR
STARTCHAR D:\GitHub\GeoCloud-presentation\SalesDemo\images\bdfconv\anim\sprite_04.png
ENCODING 52
DWIDTH 50 0
BBX 50 50 0 0
BITMAP
7fc00000000000
ffe00000000000
ffe00000000000
ffe00000000000
ffe00000000000
fbe00000000000
7fc00000000000
00000000000000
00000000000000
00000000000000
00000000000000
00000000000000
00000000000000
00000000000000
00000000000000
00000000000000
00000000000000
00000000000000
00000000000000
00000000000000
00000000000000
00000000000000
00000000000000
00000000000000
00000000000000
00000000000000
00000000000000
00000000000000
00000000000000
00000000000000
00000000000000
00000000000000
00000000000000
00000000000000
00000000000000
00000000000000
00000000000000
00000000000000
00000000000000
00000000000000
00000000000000
00000000000000
00000000000000
00000000000000
00000000000000
00000000000000
00000000000000
00000000000000
00000000000000
00000000000000
ENDCHAR
STARTCHAR D:\GitHub\GeoCloud-presentation\SalesDemo\images\bdfconv\anim\sprite_05.png
ENCODING 53
DWIDTH 50 0
BBX 50 50 0 0
BITMAP
7fc00000000000
ffe00000000000
ffe00000000000
ffe00000000000
fbe00000000000
f1e00000000000
7fc00000000000
00000000000000
00000000000000
00000000000000
00000000000000
00000000000000
00000000000000
00000000000000
00000000000000
00000000000000
00000000000000
00000000000000
00000000000000
00000000000000
00000000000000
00000000000000
00000000000000
00000000000000
00000000000000
00000000000000
00000000000000
00000000000000
00000000000000
00000000000000
00000000000000
00000000000000
00000000000000
00000000000000
00000000000000
00000000000000
00000000000000
00000000000000
00000000000000
00000000000000
00000000000000
00000000000000
00000000000000
00000000000000
00000000000000
00000000000000
00000000000000
00000000000000
00000000000000
00000000000000
ENDCHAR
STARTCHAR D:\GitHub\GeoCloud-presentation\SalesDemo\images\bdfconv\anim\sprite_06.png
ENCODING 54
DWIDTH 50 0
BBX 50 50 0 0
BITMAP
7fc00000000000
ffe00000000000
ffe00000000000
fbe00000000000
f1e00000000000
eae00000000000
7fc00000000000
00000000000000
00000000000000
00000000000000
00000000000000
00000000000000
00000000000000
00000000000000
00000000000000
00000000000000
00000000000000
00000000000000
00000000000000
00000000000000
00000000000000
00000000000000
00000000000000
00000000000000
00000000000000
00000000000000
00000000000000
00000000000000
00000000000000
00000000000000
00000000000000
00000000000000
00000000000000
00000000000000
00000000000000
00000000000000
00000000000000
00000000000000
00000000000000
00000000000000
00000000000000
00000000000000
00000000000000
00000000000000
00000000000000
00000000000000
00000000000000
00000000000000
00000000000000
00000000000000
ENDCHAR
STARTCHAR D:\GitHub\GeoCloud-presentation\SalesDemo\images\bdfconv\anim\sprite_07.png
ENCODING 55
DWIDTH 50 0
BBX 50 50 0 0
BITMAP
7fc00000000000
ffe00000000000
fbe00000000000
f1e00000000000
eae00000000000
fbe00000000000
7fc00000000000
00000000000000
00000000000000
00000000000000
00000000000000
00000000000000
00000000000000
00000000000000
00000000000000
00000000000000
00000000000000
00000000000000
00000000000000
00000000000000
00000000000000
00000000000000
00000000000000
00000000000000
00000000000000
00000000000000
00000000000000
00000000000000
00000000000000
00000000000000
00000000000000
00000000000000
00000000000000
00000000000000
00000000000000
00000000000000
00000000000000
00000000000000
00000000000000
00000000000000
00000000000000
00000000000000
00000000000000
00000000000000
00000000000000
00000000000000
00000000000000
00000000000000
00000000000000
00000000000000
ENDCHAR
STARTCHAR D:\GitHub\GeoCloud-presentation\SalesDemo\images\bdfconv\anim\sprite_08.png
ENCODING 56
DWIDTH 50 0
BBX 50 50 0 0
BITMAP
7fc00000000000
fbe00000000000
f1e00000000000
eae00000000000
fbe00000000000
fbe00000000000
7fc00000000000
00000000000000
00000000000000
00000000000000
00000000000000
00000000000000
00000000000000
00000000000000
00000000000000
00000000000000
00000000000000
00000000000000
00000000000000
00000000000000
00000000000000
00000000000000
00000000000000
00000000000000
00000000000000
00000000000000
00000000000000
00000000000000
00000000000000
00000000000000
00000000000000
00000000000000
00000000000000
00000000000000
00000000000000
00000000000000
00000000000000
00000000000000
00000000000000
00000000000000
00000000000000
00000000000000
00000000000000
00000000000000
00000000000000
00000000000000
00000000000000
00000000000000
00000000000000
00000000000000
ENDCHAR
STARTCHAR D:\GitHub\GeoCloud-presentation\SalesDemo\images\bdfconv\anim\sprite_09.png
ENCODING 57
DWIDTH 50 0
BBX 50 50 0 0
BITMAP
7fc00000000000
f1e00000000000
eae00000000000
fbe00000000000
fbe00000000000
ffe00000000000
7fc00000000000
00000000000000
00000000000000
00000000000000
00000000000000
00000000000000
00000000000000
00000000000000
00000000000000
00000000000000
00000000000000
00000000000000
00000000000000
00000000000000
00000000000000
00000000000000
00000000000000
00000000000000
00000000000000
00000000000000
00000000000000
00000000000000
00000000000000
00000000000000
00000000000000
00000000000000
00000000000000
00000000000000
00000000000000
00000000000000
00000000000000
00000000000000
00000000000000
00000000000000
00000000000000
00000000000000
00000000000000
00000000000000
00000000000000
00000000000000
00000000000000
00000000000000
00000000000000
00000000000000
ENDCHAR
STARTCHAR D:\GitHub\GeoCloud-presentation\SalesDemo\images\bdfconv\anim\sprite_10.png
ENCODING 58
DWIDTH 50 0
BBX 50 50 0 0
BITMAP
7fc00000000000
eae00000000000
fbe00000000000
fbe00000000000
ffe00000000000
ffe00000000000
7fc00000000000
00000000000000
00000000000000
00000000000000
00000000000000
00000000000000
00000000000000
00000000000000
00000000000000
00000000000000
00000000000000
00000000000000
00000000000000
00000000000000
00000000000000
00000000000000
00000000000000
00000000000000
00000000000000
00000000000000
00000000000000
00000000000000
00000000000000
00000000000000
00000000000000
00000000000000
00000000000000
00000000000000
00000000000000
00000000000000
00000000000000
00000000000000
00000000000000
00000000000000
00000000000000
00000000000000
00000000000000
00000000000000
00000000000000
00000000000000
00000000000000
00000000000000
00000000000000
00000000000000
ENDCHAR
STARTCHAR D:\GitHub\GeoCloud-presentation\SalesDemo\images\bdfconv\anim\sprite_11.png
ENCODING 59
DWIDTH 50 0
BBX 50 50 0 0
BITMAP
7fc00000000000
fbe00000000000
fbe00000000000
ffe00000000000
ffe00000000000
ffe00000000000
7fc00000000000
00000000000000
00000000000000
00000000000000
00000000000000
00000000000000
00000000000000
00000000000000
00000000000000
00000000000000
00000000000000
00000000000000
00000000000000
00000000000000
00000000000000
00000000000000
00000000000000
00000000000000
00000000000000
00000000000000
00000000000000
00000000000000
00000000000000
00000000000000
00000000000000
00000000000000
00000000000000
00000000000000
00000000000000
00000000000000
00000000000000
00000000000000
00000000000000
00000000000000
00000000000000
00000000000000
00000000000000
00000000000000
00000000000000
00000000000000
00000000000000
00000000000000
00000000000000
00000000000000
ENDCHAR
STARTCHAR D:\GitHub\GeoCloud-presentation\SalesDemo\images\bdfconv\anim\sprite_12.png
ENCODING 60
DWIDTH 50 0
BBX 50 50 0 0
BITMAP
7fc00000000000
fbe00000000000
ffe00000000000
ffe00000000000
ffe00000000000
ffe00000000000
7fc00000000000
00000000000000
00000000000000
00000000000000
00000000000000
00000000000000
00000000000000
00000000000000
00000000000000
00000000000000
00000000000000
00000000000000
00000000000000
00000000000000
00000000000000
00000000000000
00000000000000
00000000000000
00000000000000
00000000000000
00000000000000
00000000000000
00000000000000
00000000000000
00000000000000
00000000000000
00000000000000
00000000000000
00000000000000
00000000000000
00000000000000
00000000000000
00000000000000
00000000000000
00000000000000
00000000000000
00000000000000
00000000000000
00000000000000
00000000000000
00000000000000
00000000000000
00000000000000
00000000000000
ENDCHAR
STARTCHAR D:\GitHub\GeoCloud-presentation\SalesDemo\images\bdfconv\anim\sprite_13.png
ENCODING 61
DWIDTH 50 0
BBX 50 50 0 0
BITMAP
7fc00000000000
ffe00000000000
ffe00000000000
ffe00000000000
ffe00000000000
ffe00000000000
7fc00000000000
00000000000000
00000000000000
00000000000000
00000000000000
00000000000000
00000000000000
00000000000000
00000000000000
00000000000000
00000000000000
00000000000000
00000000000000
00000000000000
00000000000000
00000000000000
00000000000000
00000000000000
00000000000000
00000000000000
00000000000000
00000000000000
00000000000000
00000000000000
00000000000000
00000000000000
00000000000000
00000000000000
00000000000000
00000000000000
00000000000000
00000000000000
00000000000000
00000000000000
00000000000000
00000000000000
00000000000000
00000000000000
00000000000000
00000000000000
00000000000000
00000000000000
00000000000000
00000000000000
ENDCHAR
